<?xml version="1.0" encoding="utf-8"?>
<!-- Generator: Adobe Illustrator 15.0.0, SVG Export Plug-In . SVG Version: 6.00 Build 0)  -->
<!DOCTYPE svg PUBLIC "-//W3C//DTD SVG 1.1//EN" "http://www.w3.org/Graphics/SVG/1.1/DTD/svg11.dtd">
<svg version="1.1" id="Calque_1" xmlns="http://www.w3.org/2000/svg" xmlns:xlink="http://www.w3.org/1999/xlink" x="0px" y="0px"
	 width="204px" height="204px" viewBox="0 0 204 204" enable-background="new 0 0 204 204" xml:space="preserve">
<g>
	<g>
		<path fill="#D2E2EC" d="M101.977,202c-26.717,0-51.835-10.402-70.728-29.29c-38.999-38.99-38.999-102.431,0-141.42
			C50.142,12.402,75.259,2,101.977,2s51.835,10.402,70.728,29.29C191.596,50.177,202,75.289,202,102
			c0,26.711-10.405,51.823-29.297,70.71C153.812,191.598,128.693,202,101.977,202z M101.977,6.831
			c-25.427,0-49.332,9.899-67.312,27.875c-37.114,37.106-37.114,97.483,0,134.59c17.979,17.975,41.885,27.875,67.312,27.875
			s49.331-9.899,67.311-27.875c17.979-17.976,27.881-41.874,27.881-67.295s-9.9-49.32-27.88-67.295
			C151.308,16.73,127.403,6.831,101.977,6.831z"/>
	</g>
</g>
<polygon fill="#D2E2EC" points="166.263,99.584 43.523,99.584 103.685,39.437 100.269,36.021 34.274,102 100.269,167.978 
	103.685,164.562 43.523,104.416 166.263,104.416 "/>
</svg>
